<svg width="26" height="26" viewBox="0 0 26 26" fill="none" xmlns="http://www.w3.org/2000/svg">
    <path d="M13.24 21.51a.546.546 0 0 1-.769 0 .546.546 0 0 1 0-.77l3.673-3.672-1.528-1.528-3.672 3.673c-.206.217-.553.206-.77 0a.546.546 0 0 1 0-.77l3.673-3.672-1.527-1.527-3.673 3.672a.546.546 0 0 1-.769 0 .556.556 0 0 1 0-.769l3.672-3.672-1.538-1.528L6.34 14.62a.546.546 0 0 1-.77 0 .556.556 0 0 1 0-.77l4.745-4.745 2.026 2.015c1.03 1.03 2.806 1.019 3.835 0a2.707 2.707 0 0 0 0-3.835L14.161 5.27l.304-.303a2.17 2.17 0 0 1 3.066 0l4.593 4.593a2.17 2.17 0 0 1 0 3.066L13.24 21.51zm10.411-7.345a4.342 4.342 0 0 0 0-6.132L19.058 3.44a4.342 4.342 0 0 0-6.132 0l-.303.303-.303-.303a4.342 4.342 0 0 0-6.132 0L2.353 7.275a4.325 4.325 0 0 0-.433 5.622l1.57-1.57a2.167 2.167 0 0 1 .401-2.525l3.835-3.835a2.17 2.17 0 0 1 3.066 0l3.857 3.857a.546.546 0 0 1 0 .769.546.546 0 0 1-.77 0L10.317 6.04l-6.284 6.272a2.707 2.707 0 0 0 0 3.835c.423.423.964.683 1.539.759a2.663 2.663 0 0 0 2.296 2.296 2.663 2.663 0 0 0 2.297 2.297c.076.585.336 1.116.758 1.538.51.51 1.192.791 1.918.791s1.408-.282 1.917-.79l8.894-8.873z" fill="#fff"/>
</svg>
